<?xml version="1.0" encoding="UTF-8" standalone="no"?>
<svg
   xmlns:dc="http://purl.org/dc/elements/1.1/"
   xmlns:cc="http://creativecommons.org/ns#"
   xmlns:rdf="http://www.w3.org/1999/02/22-rdf-syntax-ns#"
   xmlns:svg="http://www.w3.org/2000/svg"
   xmlns="http://www.w3.org/2000/svg"
   xmlns:sodipodi="http://sodipodi.sourceforge.net/DTD/sodipodi-0.dtd"
   xmlns:inkscape="http://www.inkscape.org/namespaces/inkscape"
   version="1.1"
   id="svg2"
   xml:space="preserve"
   width="379.60666"
   height="105.0796"
   viewBox="0 0 379.60666 105.0796"
   sodipodi:docname="logow.svg"
   inkscape:version="1.0.1 (3bc2e813f5, 2020-09-07)"><metadata
     id="metadata8"><rdf:RDF><cc:Work
         rdf:about=""><dc:format>image/svg+xml</dc:format><dc:type
           rdf:resource="http://purl.org/dc/dcmitype/StillImage" /><dc:title></dc:title></cc:Work></rdf:RDF></metadata><defs
     id="defs6" /><sodipodi:namedview
     pagecolor="#ffffff"
     bordercolor="#666666"
     borderopacity="1"
     objecttolerance="10"
     gridtolerance="10"
     guidetolerance="10"
     inkscape:pageopacity="0"
     inkscape:pageshadow="2"
     inkscape:window-width="1848"
     inkscape:window-height="1016"
     id="namedview4"
     showgrid="false"
     fit-margin-top="0"
     fit-margin-left="0"
     fit-margin-right="0"
     fit-margin-bottom="0"
     inkscape:zoom="1.1696112"
     inkscape:cx="0.78089798"
     inkscape:cy="41.517282"
     inkscape:window-x="0"
     inkscape:window-y="0"
     inkscape:window-maximized="1"
     inkscape:current-layer="g12"
     inkscape:document-rotation="0" /><g
     id="g10"
     inkscape:groupmode="layer"
     inkscape:label="ink_ext_XXXXXX"
     transform="matrix(1.3333333,0,0,-1.3333333,0,127.0156)"><g
       id="g12"
       transform="scale(0.1)"><path
         d="M 746.984,932.602 H 729.508 L 641.137,712.75 c 5.812,0.43 11.578,0.863 17.437,1.289 l 16.703,42.024 H 799.75 l 12.566,-31.954 c 5.5,0.325 11.118,0.625 16.653,0.946 z m -66.617,-162.719 57.871,147.066 h 0.739 L 794.66,769.883 H 680.367"
         style="fill:#00adef;fill-opacity:1;fill-rule:nonzero;stroke:none"
         id="path14"
         inkscape:connector-curvature="0" /><path
         d="m 882.934,774.992 c 1.437,28.047 7.277,39.66 21.105,53.856 16.75,16.367 37.129,20.058 51.684,18.218 v 13.813 c -33.848,1.488 -64.442,-18.18 -71.719,-42.563 h -1.07 v 41.481 H 869.082 V 727.285 c 4.578,0.242 9.246,0.473 13.852,0.719 v 46.988"
         style="fill:#00adef;fill-opacity:1;fill-rule:nonzero;stroke:none"
         id="path16"
         inkscape:connector-curvature="0" /><path
         d="m 980.746,895.121 h 13.8281 v 37.4805 H 980.746 Z"
         style="fill:#00adef;fill-opacity:1;fill-rule:nonzero;stroke:none"
         id="path18"
         inkscape:connector-curvature="0" /><path
         d="m 994.574,859.797 h -13.828 v -127.09 c 4.578,0.191 9.231,0.379 13.828,0.574 v 126.516"
         style="fill:#00adef;fill-opacity:1;fill-rule:nonzero;stroke:none"
         id="path20"
         inkscape:connector-curvature="0" /><path
         d="m 1117.41,774.992 c -30.22,6.551 -62.23,11.305 -62.23,41.106 0,26.601 28.37,36.054 53.87,36.054 31.31,0 54.95,-13.843 55.33,-47.672 h 13.83 c 0,42.586 -29.5,59.684 -69.16,59.684 -31.69,0 -67.72,-10.906 -67.72,-48.066 0,-38.188 32.05,-46.586 64.43,-53.121 24,-4.899 47.99,-8.797 58.53,-23.75 5.37,0.148 10.79,0.285 16.19,0.425 -8.47,22.981 -33.15,29.778 -63.07,35.34"
         style="fill:#00adef;fill-opacity:1;fill-rule:nonzero;stroke:none"
         id="path22"
         inkscape:connector-curvature="0" /><path
         d="m 1034.79,734.953 c 0,-0.008 0,-0.012 0,-0.012 0.11,0 0.23,0.004 0.34,0.012 h -0.34"
         style="fill:#00adef;fill-opacity:1;fill-rule:nonzero;stroke:none"
         id="path24"
         inkscape:connector-curvature="0" /><path
         d="m 1248.6,847.785 h 40.77 v 12.012 h -40.77 v 58.25 h -13.8 v -58.25 h -34.59 v -12.012 h 34.59 V 740.957 c 4.59,0.098 9.19,0.195 13.8,0.293 v 106.535"
         style="fill:#00adef;fill-opacity:1;fill-rule:nonzero;stroke:none"
         id="path26"
         inkscape:connector-curvature="0" /><path
         d="m 1335.43,859.797 h -13.86 V 742.523 c 4.64,0.063 9.21,0.153 13.86,0.211 v 117.063"
         style="fill:#00adef;fill-opacity:1;fill-rule:nonzero;stroke:none"
         id="path28"
         inkscape:connector-curvature="0" /><path
         d="m 1321.57,895.121 h 13.8555 v 37.4805 H 1321.57 Z"
         style="fill:#00adef;fill-opacity:1;fill-rule:nonzero;stroke:none"
         id="path30"
         inkscape:connector-curvature="0" /><path
         d="m 1388,765.898 c 0,45.133 20.02,86.254 69.5,86.254 48.05,0 69.55,-42.593 69.55,-86.254 0,-7.511 -0.71,-14.988 -2.05,-22.246 5.43,-0.019 10.84,-0.058 16.25,-0.082 v 189.032 h -13.84 V 817.934 h -0.71 c -9.84,29.504 -38.59,46.23 -69.2,46.23 -56.39,0 -83.33,-42.945 -83.33,-98.266 0,-7.769 0.63,-15.371 1.75,-22.738 4.72,0.043 9.4,0.106 14.13,0.145 -1.34,7.32 -2.05,14.906 -2.05,22.593"
         style="fill:#00adef;fill-opacity:1;fill-rule:nonzero;stroke:none"
         id="path32"
         inkscape:connector-curvature="0" /><path
         d="m 1662.99,864.164 c -56.4,0 -83.34,-49.875 -82.63,-101.187 -0.09,-6.731 0.34,-13.309 1.24,-19.668 4.76,-0.043 9.5,-0.098 14.26,-0.141 -1.19,6.875 -1.77,14 -1.66,21.254 h 151.08 c 2.54,53.512 -23.67,99.742 -82.29,99.742 z m -68.79,-87.707 c 2.91,37.113 27.31,75.695 68.79,75.695 42.97,0 67.72,-36.394 68.44,-75.695 H 1594.2"
         style="fill:#00adef;fill-opacity:1;fill-rule:nonzero;stroke:none"
         id="path34"
         inkscape:connector-curvature="0" /><path
         d="m 2847.05,643.117 c -361.01,44.488 -842.44,76.68 -1371.03,75.516 C 893.66,717.363 369.078,676.992 0,622.469 c 417.465,42.414 937.387,62.578 1501.29,63.847 495.49,1.098 957.35,-11.269 1345.76,-43.199"
         style="fill:#ececec;fill-opacity:1;fill-rule:nonzero;stroke:none"
         id="path36"
         inkscape:connector-curvature="0" /><path
         d="M 352.348,952.617 H 567.867 V 164.52 H 187.258 l 165.09,788.097"
         style="fill:#facc22;fill-opacity:1;fill-rule:nonzero;stroke:none"
         id="path38"
         inkscape:connector-curvature="0" /><path
         d="m 937.344,237.414 c -16.367,-9.621 -40.946,-14.445 -73.723,-14.445 h -182.18 v 158.703 h 182.18 c 32.777,0 57.356,-4.484 73.723,-13.461 21.484,-12.617 32.25,-34.531 32.25,-65.711 0,-30.773 -10.766,-52.473 -32.25,-65.086 z M 926.898,435.633 C 910.469,426.25 885.949,421.574 853.277,421.574 H 681.441 v 158.66 h 171.836 c 33.942,0 58.465,-4.796 73.621,-14.324 21.965,-12.805 32.965,-34.387 32.965,-64.875 0,-30.82 -11,-52.637 -32.965,-65.402 z m 59.09,-66.953 c -12.148,13.449 -32.957,24.511 -62.379,33.261 25.809,10.45 44.125,22.61 55.047,36.469 12.782,16.199 19.137,37.012 19.137,62.399 0,79.562 -48.219,119.347 -144.656,119.347 H 642.516 V 183.078 h 221.191 c 96.539,0 144.803,39.813 144.803,119.363 0,27.5 -7.5,49.579 -22.522,66.239"
         style="fill:#f9f9f9;fill-opacity:1;fill-rule:nonzero;stroke:none"
         id="path40"
         inkscape:connector-curvature="0" /><path
         d="m 1349.48,435.633 c -16.34,-9.383 -40.92,-14.059 -73.68,-14.059 h -182.19 v 158.66 h 182.19 c 32.76,0 57.34,-4.796 73.68,-14.324 21.51,-12.59 32.25,-34.172 32.25,-64.875 0,-31.055 -10.74,-52.851 -32.25,-65.402 z m -73.63,184.523 H 1054.67 V 183.078 h 38.94 v 198.594 h 150.43 l 124.27,-198.594 h 45.01 l -123.58,198.594 c 87.29,7.43 130.96,47.183 130.96,119.226 0,79.512 -48.3,119.258 -144.85,119.258"
         style="fill:#f9f9f9;fill-opacity:1;fill-rule:nonzero;stroke:none"
         id="path42"
         inkscape:connector-curvature="0" /><path
         d="m 1465.92,183.078 h 38.9648 V 620.156 H 1465.92 Z"
         style="fill:#f9f9f9;fill-opacity:1;fill-rule:nonzero;stroke:none"
         id="path44"
         inkscape:connector-curvature="0" /><path
         d="m 1813.09,335.898 h -174.32 l 87,249.188 z m 94.63,-152.82 -153.81,437.078 h -56.93 L 1544.4,183.078 h 39.94 l 39.67,112.899 h 202.81 l 39.67,-112.899 h 41.23"
         style="fill:#f9f9f9;fill-opacity:1;fill-rule:nonzero;stroke:none"
         id="path46"
         inkscape:connector-curvature="0" /><path
         d="M 2239.98,183.078 1982.89,555.117 V 183.078 h -38.9 v 437.078 h 41.76 l 258.02,-372.648 v 372.648 h 37.99 V 183.078 h -41.78"
         style="fill:#f9f9f9;fill-opacity:1;fill-rule:nonzero;stroke:none"
         id="path48"
         inkscape:connector-curvature="0" /><path
         d="m 2627.58,277.414 c -24.74,-36.289 -61.91,-54.445 -111.46,-54.445 h -144.03 v 357.265 h 144.03 c 49.55,0 86.72,-18.136 111.46,-54.402 22.4,-32.445 33.62,-73.965 33.62,-124.523 0,-51.008 -11.22,-92.336 -33.62,-123.895 z m 28.65,276.52 c -32.69,44.132 -79.39,66.222 -140.11,66.222 H 2333.11 V 183.078 h 183.01 c 60.72,0 107.42,22.067 140.11,66.277 29.26,39.872 43.91,90.497 43.91,151.954 0,61.613 -14.65,112.519 -43.91,152.625"
         style="fill:#f9f9f9;fill-opacity:1;fill-rule:nonzero;stroke:none"
         id="path50"
         inkscape:connector-curvature="0" /><path
         d="m 509.539,287.313 v -59.274 h -95.281 v 8.797 h 86.933 v 50.477 h 8.348"
         style="fill:#4f4c4c;fill-opacity:1;fill-rule:nonzero;stroke:none"
         id="path52"
         inkscape:connector-curvature="0" /><path
         d="m 509.539,390.293 v -8.418 h -39.348 l -55.785,-34.074 v 10.121 l 47.293,28.219 -47.293,29.398 v 10.484 l 55.785,-35.73 h 39.348"
         style="fill:#4f4c4c;fill-opacity:1;fill-rule:nonzero;stroke:none"
         id="path54"
         inkscape:connector-curvature="0" /><path
         d="m 488.789,580.137 c 20.211,-8.809 23.168,-22.52 23.168,-33.926 0,-6.348 -0.93,-19.676 -12.66,-29.258 -8.348,-6.867 -21.84,-10.617 -36.656,-10.617 -20.207,0 -50.672,6.996 -50.672,39.094 0,24.629 15.496,31.328 24.672,35.351 l 4.707,-8.683 c -7.813,-1.66 -13.61,-5.926 -16.567,-9.696 -4.726,-6.105 -4.859,-13.359 -4.859,-16.57 0,-9.855 2.965,-16.723 11.183,-22.531 9.036,-6.348 19.934,-7.903 30.184,-7.903 6.477,0 21.965,0.766 31.406,7.618 10.11,7.14 11.184,17.746 11.184,24.23 0,4.383 -0.535,9.598 -4.039,14.375 -2.289,3.231 -7.828,8.301 -16.172,10.477 l 5.121,8.039"
         style="fill:#4f4c4c;fill-opacity:1;fill-rule:nonzero;stroke:none"
         id="path56"
         inkscape:connector-curvature="0" /><path
         d="m 388.93,712.723 16.847,-12.684 v 7.383 l -16.847,19.035 z m 112.261,24.582 v -54.239 h -36.265 v 46.231 h -8.348 v -46.231 h -33.82 v 51.008 h -8.352 v -59.679 h 95.133 v 62.91 h -8.348"
         style="fill:#4f4c4c;fill-opacity:1;fill-rule:nonzero;stroke:none"
         id="path58"
         inkscape:connector-curvature="0" /><path
         d="m 509.539,893.219 v -62.93 h -95.133 v 59.691 h 8.352 v -51.011 h 33.82 v 46.222 h 8.348 v -46.222 h 36.265 v 54.25 h 8.348"
         style="fill:#4f4c4c;fill-opacity:1;fill-rule:nonzero;stroke:none"
         id="path60"
         inkscape:connector-curvature="0" /></g></g></svg>
